<svg width="258" height="270" viewBox="0 0 258 270" fill="none" xmlns="http://www.w3.org/2000/svg">
<path d="M242.937 60.07C219.083 27.7828 183.774 8 139.562 8C66.9022 8 8 64.8598 8 135C8 205.14 66.9022 262 139.562 262C183.774 262 220.957 242.217 244.811 209.93" stroke="#0F2652" stroke-width="15"/>
<path d="M186.725 98.1698C175.212 82.0261 156.332 71.4998 134.993 71.4998C99.9249 71.4998 71.4966 99.9297 71.4966 135C71.4966 170.07 99.9249 198.5 134.993 198.5C156.332 198.5 175.212 187.973 186.725 171.83" stroke="#0F2652" stroke-width="15"/>
<path d="M214.998 79.1199C197.235 54.9045 169.374 41.0199 136.45 41.0199C82.3414 41.0199 38.478 83.6648 38.478 136.27C38.478 188.875 82.3414 231.52 136.45 231.52C169.374 231.52 195.965 218.905 213.728 194.69" stroke="#0F2652" stroke-width="15"/>
<path d="M217.54 88.0098C234.049 113.41 238.61 147.99 224.844 176.888C221.442 184.03 217.261 190.106 212.459 195.96" stroke="#0F2652" stroke-width="15"/>
<path d="M244.207 49.9099L177.317 98.1601" stroke="#0F2652" stroke-width="15"/>
<path d="M209.919 195.96L176.369 174.285" stroke="#0F2652" stroke-width="15"/>
<path d="M244.857 219.94L223.889 203.58" stroke="#0F2652" stroke-width="15"/>
</svg>
